<svg width="27" height="18" viewBox="0 0 27 18" fill="none" xmlns="http://www.w3.org/2000/svg">
<g clip-path="url(#clip0_6_382)">
<path d="M4.86065 14.8826L1.33332 15.6666L2.11732 12.1393C1.60101 11.1735 1.33167 10.095 1.33332 8.99992C1.33332 5.31792 4.31799 2.33325 7.99999 2.33325C11.682 2.33325 14.6667 5.31792 14.6667 8.99992C14.6667 12.6819 11.682 15.6666 7.99999 15.6666C6.90489 15.6682 5.8264 15.3989 4.86065 14.8826ZM5.05399 13.4739L5.48932 13.7073C6.26169 14.12 7.12425 14.3351 7.99999 14.3333C9.05482 14.3333 10.086 14.0205 10.963 13.4344C11.8401 12.8484 12.5237 12.0154 12.9273 11.0409C13.331 10.0664 13.4366 8.994 13.2308 7.95944C13.0251 6.92487 12.5171 5.97456 11.7712 5.22868C11.0253 4.4828 10.075 3.97485 9.04047 3.76906C8.0059 3.56328 6.93355 3.66889 5.95901 4.07256C4.98447 4.47623 4.15152 5.15982 3.56548 6.03688C2.97945 6.91394 2.66665 7.94509 2.66665 8.99992C2.66665 9.88925 2.88332 10.7453 3.29332 11.5106L3.52599 11.9459L3.08932 13.9106L5.05399 13.4739Z" fill="#878787"/>
</g>
<path d="M20.612 12.124C21.628 11.308 22.424 10.64 23 10.12C23.576 9.592 24.06 9.044 24.452 8.476C24.852 7.9 25.052 7.336 25.052 6.784C25.052 6.264 24.924 5.856 24.668 5.56C24.42 5.256 24.016 5.104 23.456 5.104C22.912 5.104 22.488 5.276 22.184 5.62C21.888 5.956 21.728 6.408 21.704 6.976H20.648C20.68 6.08 20.952 5.388 21.464 4.9C21.976 4.412 22.636 4.168 23.444 4.168C24.268 4.168 24.92 4.396 25.4 4.852C25.888 5.308 26.132 5.936 26.132 6.736C26.132 7.4 25.932 8.048 25.532 8.68C25.14 9.304 24.692 9.856 24.188 10.336C23.684 10.808 23.04 11.36 22.256 11.992H26.384V12.904H20.612V12.124Z" fill="#878787"/>
<defs>
<clipPath id="clip0_6_382">
<rect width="16" height="16" fill="white" transform="translate(0 1)"/>
</clipPath>
</defs>
</svg>
